<svg xmlns="http://www.w3.org/2000/svg" viewBox="0 0 526.48 234.19"><defs><style>.cls-1{isolation:isolate;}.cls-2{opacity:0.7;mix-blend-mode:multiply;}.cls-3{fill:#5875f6;}.cls-4{fill:#ea6061;}.cls-5,.cls-7{fill:none;stroke-miterlimit:10;stroke-width:0.78px;}.cls-5{stroke:#000;}.cls-6{fill:#fff;}.cls-7{stroke:#fff;}</style></defs><g class="cls-1"><g id="Layer_1" data-name="Layer 1"><g class="cls-2"><path d="M110.07,73.15h17.87v70H110.07Z"/></g><path class="cls-3" d="M110.07,73.15h17.87v70H110.07Z"/><g class="cls-2"><path d="M162.26,105.39c-.09-1.13-.28-4-4.92-4-3.3,0-4.44,2.08-4.44,3.5,0,2.83,3.88,4.44,8,5.67,8.88,2.46,18.34,5.11,18.34,16.45,0,11.06-9.74,17.87-21.37,17.87-7.94,0-19.95-3.59-21.36-17.4h15.59c.67,4.83,5.3,4.83,6,4.83,2.65,0,5.48-1.52,5.48-4.07,0-4.06-3.87-4.54-13.89-8.41-6.81-2.18-12.48-6.62-12.48-13.71,0-10.4,9.45-17.3,20.32-17.3,6.91,0,18.82,2.74,20.14,16.54Z"/></g><path class="cls-3" d="M162.26,105.39c-.09-1.13-.28-4-4.92-4-3.3,0-4.44,2.08-4.44,3.5,0,2.83,3.88,4.44,8,5.67,8.88,2.46,18.34,5.11,18.34,16.45,0,11.06-9.74,17.87-21.37,17.87-7.94,0-19.95-3.59-21.36-17.4h15.59c.67,4.83,5.3,4.83,6,4.83,2.65,0,5.48-1.52,5.48-4.07,0-4.06-3.87-4.54-13.89-8.41-6.81-2.18-12.48-6.62-12.48-13.71,0-10.4,9.45-17.3,20.32-17.3,6.91,0,18.82,2.74,20.14,16.54Z"/><g class="cls-2"><path d="M187,90.64h14.75v5.58H202c1.32-2.55,4.06-7.37,13.14-7.37v15.78c-7.28.19-12.39,1.71-12.39,9.65v28.83H187Z"/></g><path class="cls-3" d="M187,90.64h14.75v5.58H202c1.32-2.55,4.06-7.37,13.14-7.37v15.78c-7.28.19-12.39,1.71-12.39,9.65v28.83H187Z"/><g class="cls-2"><path d="M276.56,143.11H260.87v-5.67h-.19c-2.65,5.11-9.17,7.47-15.32,7.47-16.64,0-26.37-13-26.37-28.08,0-17.21,12.38-28,26.37-28,8.61,0,13.43,4.16,15.32,7.37h.19V90.64h15.69Zm-28.83-12.85c9.83,0,13.14-8.32,13.14-13.43,0-6.33-4.35-13.33-13.24-13.33s-12.95,7.56-12.95,13.52C234.68,121.94,238.27,130.26,247.73,130.26Z"/></g><path class="cls-3" d="M276.56,143.11H260.87v-5.67h-.19c-2.65,5.11-9.17,7.47-15.32,7.47-16.64,0-26.37-13-26.37-28.08,0-17.21,12.38-28,26.37-28,8.61,0,13.43,4.16,15.32,7.37h.19V90.64h15.69Zm-28.83-12.85c9.83,0,13.14-8.32,13.14-13.43,0-6.33-4.35-13.33-13.24-13.33s-12.95,7.56-12.95,13.52C234.68,121.94,238.27,130.26,247.73,130.26Z"/><g class="cls-2"><path d="M289.89,90.64h14.75v5.77h.28c3.12-4,8.32-7.56,16.36-7.56,18.62,0,25.62,16.35,25.62,28.55,0,15.12-10.59,27.51-25.53,27.51-9.45,0-13.89-4.54-15.78-6.52V160.6h-15.7Zm41.32,26.29c0-6.24-4.54-13.43-13.14-13.43s-13.15,7.19-13.15,13.43c0,6.61,4.92,13.33,13.15,13.33S331.21,123.54,331.21,116.93Z"/></g><path class="cls-3" d="M289.89,90.64h14.75v5.77h.28c3.12-4,8.32-7.56,16.36-7.56,18.62,0,25.62,16.35,25.62,28.55,0,15.12-10.59,27.51-25.53,27.51-9.45,0-13.89-4.54-15.78-6.52V160.6h-15.7Zm41.32,26.29c0-6.24-4.54-13.43-13.14-13.43s-13.15,7.19-13.15,13.43c0,6.61,4.92,13.33,13.15,13.33S331.21,123.54,331.21,116.93Z"/><g class="cls-2"><path d="M381.6,88.94c19.09,0,28.27,15,28.27,27.89s-9.18,27.89-28.27,27.89-28.27-15-28.27-27.89S362.5,88.94,381.6,88.94Zm0,41.13c6.8,0,12.57-5.58,12.57-13.24s-5.77-13.24-12.57-13.24S369,109.17,369,116.83,374.79,130.07,381.6,130.07Z"/></g><path class="cls-3" d="M381.6,88.94c19.09,0,28.27,15,28.27,27.89s-9.18,27.89-28.27,27.89-28.27-15-28.27-27.89S362.5,88.94,381.6,88.94Zm0,41.13c6.8,0,12.57-5.58,12.57-13.24s-5.77-13.24-12.57-13.24S369,109.17,369,116.83,374.79,130.07,381.6,130.07Z"/><g class="cls-2"><path d="M418.75,73.15h15.7v70h-15.7Z"/></g><path class="cls-3" d="M418.75,73.15h15.7v70h-15.7Z"/><g class="cls-2"><path d="M494.29,90.64,468,160.6H451.37l8.32-20.13L440.21,90.64H457l10.49,30.44h.19l10-30.44Z"/></g><path class="cls-3" d="M494.29,90.64,468,160.6H451.37l8.32-20.13L440.21,90.64H457l10.49,30.44h.19l10-30.44Z"/><g class="cls-2"><path d="M32.54,169.94l2,9.77h.05l2.21-9.77h2.94l2.18,9.81h0L44,169.94H47.9l-4,15H40.55l-2.26-9.73h0L36,185H32.52l-3.88-15Z"/></g><path class="cls-4" d="M32.54,169.94l2,9.77h.05l2.21-9.77h2.94l2.18,9.81h0L44,169.94H47.9l-4,15H40.55l-2.26-9.73h0L36,185H32.52l-3.88-15Z"/><g class="cls-2"><path d="M53.67,169.94H62v3.37H57.35v2.34h4.52V179H57.35v2.58H62V185H53.67Z"/></g><path class="cls-4" d="M53.67,169.94H62v3.37H57.35v2.34h4.52V179H57.35v2.58H62V185H53.67Z"/><g class="cls-2"><path d="M78.8,169.94h4.93l3,9.89h0l2.94-9.89h5v15H91.12l.13-11.25,0,0L88,185H85.46l-3.21-11.29,0,0L82.33,185H78.8Z"/></g><path class="cls-4" d="M78.8,169.94h4.93l3,9.89h0l2.94-9.89h5v15H91.12l.13-11.25,0,0L88,185H85.46l-3.21-11.29,0,0L82.33,185H78.8Z"/><g class="cls-2"><path d="M105.18,182.8l-.79,2.17h-4.12l6-15h3l6,15h-4.17l-.73-2.17Zm1.06-3.05h3.15l-1.55-5.14h-.06Z"/></g><path class="cls-4" d="M105.18,182.8l-.79,2.17h-4.12l6-15h3l6,15h-4.17l-.73-2.17Zm1.06-3.05h3.15l-1.55-5.14h-.06Z"/><g class="cls-2"><path d="M121.31,169.94h3.84v6.77h0l4.25-6.77h4l-5,7.5,5.3,7.53h-4.49l-4.1-6.5h0V185h-3.84Z"/></g><path class="cls-4" d="M121.31,169.94h3.84v6.77h0l4.25-6.77h4l-5,7.5,5.3,7.53h-4.49l-4.1-6.5h0V185h-3.84Z"/><g class="cls-2"><path d="M139.33,169.94h8.35v3.37H143v2.34h4.53V179H143v2.58h4.67V185h-8.35Z"/></g><path class="cls-4" d="M139.33,169.94h8.35v3.37H143v2.34h4.53V179H143v2.58h4.67V185h-8.35Z"/><g class="cls-2"><path d="M164.46,169.94h4.75c2.64,0,3.65.33,4.63,1.08a5.2,5.2,0,0,1,1.85,4.1,4.56,4.56,0,0,1-3.74,4.73L176,185h-4.38l-3.48-4.85h0V185h-3.67Zm3.67,7.56h1.36c2.26,0,2.52-1.42,2.52-2.16,0-1.36-1-2-2.48-2h-1.4Z"/></g><path class="cls-4" d="M164.46,169.94h4.75c2.64,0,3.65.33,4.63,1.08a5.2,5.2,0,0,1,1.85,4.1,4.56,4.56,0,0,1-3.74,4.73L176,185h-4.38l-3.48-4.85h0V185h-3.67Zm3.67,7.56h1.36c2.26,0,2.52-1.42,2.52-2.16,0-1.36-1-2-2.48-2h-1.4Z"/><g class="cls-2"><path d="M181.78,169.94h8.35v3.37h-4.67v2.34H190V179h-4.53v2.58h4.67V185h-8.35Z"/></g><path class="cls-4" d="M181.78,169.94h8.35v3.37h-4.67v2.34H190V179h-4.53v2.58h4.67V185h-8.35Z"/><g class="cls-2"><path d="M200.31,182.8l-.79,2.17h-4.13l6-15h3l6,15h-4.16l-.73-2.17Zm1.06-3.05h3.14L203,174.61h-.06Z"/></g><path class="cls-4" d="M200.31,182.8l-.79,2.17h-4.13l6-15h3l6,15h-4.16l-.73-2.17Zm1.06-3.05h3.14L203,174.61h-.06Z"/><g class="cls-2"><path d="M216.13,169.94H220V181.6h4.45V185h-8.29Z"/></g><path class="cls-4" d="M216.13,169.94H220V181.6h4.45V185h-8.29Z"/><g class="cls-2"><path d="M240.33,169.94h8.34v3.37H244v2.34h4.53V179H244v2.58h4.67V185h-8.34Z"/></g><path class="cls-4" d="M240.33,169.94h8.34v3.37H244v2.34h4.53V179H244v2.58h4.67V185h-8.34Z"/><g class="cls-2"><path d="M261,174.33c-.08-.51-.2-1.46-1.38-1.46A1.25,1.25,0,0,0,258.3,174c0,.9.41,1.08,3.11,2.3s3.51,2.56,3.51,4.31c0,2.19-1.26,4.61-5.24,4.61-4.34,0-5.42-2.85-5.42-4.78V180h3.82c0,1.74,1.08,2.05,1.56,2.05a1.45,1.45,0,0,0,1.47-1.45c0-1-.63-1.23-2.95-2.21-1.06-.43-3.68-1.48-3.68-4.3s2.75-4.43,5.26-4.43a5.39,5.39,0,0,1,4.07,1.7,4.57,4.57,0,0,1,1,3Z"/></g><path class="cls-4" d="M261,174.33c-.08-.51-.2-1.46-1.38-1.46A1.25,1.25,0,0,0,258.3,174c0,.9.41,1.08,3.11,2.3s3.51,2.56,3.51,4.31c0,2.19-1.26,4.61-5.24,4.61-4.34,0-5.42-2.85-5.42-4.78V180h3.82c0,1.74,1.08,2.05,1.56,2.05a1.45,1.45,0,0,0,1.47-1.45c0-1-.63-1.23-2.95-2.21-1.06-.43-3.68-1.48-3.68-4.3s2.75-4.43,5.26-4.43a5.39,5.39,0,0,1,4.07,1.7,4.57,4.57,0,0,1,1,3Z"/><g class="cls-2"><path d="M272.62,173.31h-3v-3.37h9.75v3.37h-3V185h-3.84Z"/></g><path class="cls-4" d="M272.62,173.31h-3v-3.37h9.75v3.37h-3V185h-3.84Z"/><g class="cls-2"><path d="M288.24,182.8l-.79,2.17h-4.12l6-15h3l6,15h-4.17l-.73-2.17Zm1.06-3.05h3.15l-1.55-5.14h-.06Z"/></g><path class="cls-4" d="M288.24,182.8l-.79,2.17h-4.12l6-15h3l6,15h-4.17l-.73-2.17Zm1.06-3.05h3.15l-1.55-5.14h-.06Z"/><g class="cls-2"><path d="M305.27,173.31h-3v-3.37h9.75v3.37h-2.94V185h-3.84Z"/></g><path class="cls-4" d="M305.27,173.31h-3v-3.37h9.75v3.37h-2.94V185h-3.84Z"/><g class="cls-2"><path d="M317.66,169.94H326v3.37h-4.68v2.34h4.53V179h-4.53v2.58H326V185h-8.35Z"/></g><path class="cls-4" d="M317.66,169.94H326v3.37h-4.68v2.34h4.53V179h-4.53v2.58H326V185h-8.35Z"/><g class="cls-2"><path d="M346.12,182.8l-.8,2.17H341.2l6-15h3l6,15h-4.16l-.73-2.17Zm1.05-3.05h3.15l-1.54-5.14h-.06Z"/></g><path class="cls-4" d="M346.12,182.8l-.8,2.17H341.2l6-15h3l6,15h-4.16l-.73-2.17Zm1.05-3.05h3.15l-1.54-5.14h-.06Z"/><g class="cls-2"><path d="M372.18,169.94h4.63c2.54,0,3.72.25,4.81,1.46a3.5,3.5,0,0,1,.9,2.48,3.4,3.4,0,0,1-1.75,3,3.45,3.45,0,0,1,2.48,3.49,4.33,4.33,0,0,1-1.38,3.27c-1.38,1.16-2.38,1.3-4.92,1.3h-4.77Zm3.67,5.71h1.37c.52,0,1.62,0,1.62-1.2s-1-1.14-1.62-1.14h-1.37Zm0,5.95h1.81c.49,0,1.91,0,1.91-1.44s-1.3-1.3-1.91-1.3h-1.81Z"/></g><path class="cls-4" d="M372.18,169.94h4.63c2.54,0,3.72.25,4.81,1.46a3.5,3.5,0,0,1,.9,2.48,3.4,3.4,0,0,1-1.75,3,3.45,3.45,0,0,1,2.48,3.49,4.33,4.33,0,0,1-1.38,3.27c-1.38,1.16-2.38,1.3-4.92,1.3h-4.77Zm3.67,5.71h1.37c.52,0,1.62,0,1.62-1.2s-1-1.14-1.62-1.14h-1.37Zm0,5.95h1.81c.49,0,1.91,0,1.91-1.44s-1.3-1.3-1.91-1.3h-1.81Z"/><g class="cls-2"><path d="M389.38,169.94h4.76c2.64,0,3.65.33,4.63,1.08a5.19,5.19,0,0,1,1.84,4.1,4.55,4.55,0,0,1-3.73,4.73L401,185h-4.39l-3.47-4.85h0V185h-3.68Zm3.68,7.56h1.36c2.25,0,2.52-1.42,2.52-2.16,0-1.36-1-2-2.48-2h-1.4Z"/></g><path class="cls-4" d="M389.38,169.94h4.76c2.64,0,3.65.33,4.63,1.08a5.19,5.19,0,0,1,1.84,4.1,4.55,4.55,0,0,1-3.73,4.73L401,185h-4.39l-3.47-4.85h0V185h-3.68Zm3.68,7.56h1.36c2.25,0,2.52-1.42,2.52-2.16,0-1.36-1-2-2.48-2h-1.4Z"/><g class="cls-2"><path d="M406.71,169.94h8.35v3.37h-4.67v2.34h4.53V179h-4.53v2.58h4.67V185h-8.35Z"/></g><path class="cls-4" d="M406.71,169.94h8.35v3.37h-4.67v2.34h4.53V179h-4.53v2.58h4.67V185h-8.35Z"/><g class="cls-2"><path d="M421.5,169.94h8.35v3.37h-4.67v2.34h4.52V179h-4.52v2.58h4.67V185H421.5Z"/></g><path class="cls-4" d="M421.5,169.94h8.35v3.37h-4.67v2.34h4.52V179h-4.52v2.58h4.67V185H421.5Z"/><g class="cls-2"><path d="M435.25,182.45l5.18-9.14h-5.18v-3.37h9.49v3.11l-4.8,8.55h4.8V185h-9.49Z"/></g><path class="cls-4" d="M435.25,182.45l5.18-9.14h-5.18v-3.37h9.49v3.11l-4.8,8.55h4.8V185h-9.49Z"/><g class="cls-2"><path d="M450.49,169.94h8.34v3.37h-4.67v2.34h4.53V179h-4.53v2.58h4.67V185h-8.34Z"/></g><path class="cls-4" d="M450.49,169.94h8.34v3.37h-4.67v2.34h4.53V179h-4.53v2.58h4.67V185h-8.34Z"/><g class="cls-2"><path d="M469,180h-3.47V169.94H469Zm0,4.95h-3.47v-3.45H469Z"/></g><path class="cls-4" d="M469,180h-3.47V169.94H469Zm0,4.95h-3.47v-3.45H469Z"/><g class="cls-2"><path d="M55.81,86.91,20,122.72c-2.79-2.72-5.47-5.49-8.26-8.26l44-44c.23.2.42.35.58.52q9.76,9.75,19.52,19.5c.63.63,1.29,1.21,1.92,1.83.85.85,1.67,1.72,2.52,2.57l19,19,.49.51a110.31,110.31,0,0,1-8.23,8.29Z"/><path d="M69.24,59.72H42.51l-.07.08a.16.16,0,0,0,0,.07.59.59,0,0,0,0,.14.76.76,0,0,0,0,.15q0,7.92,0,15.86a.19.19,0,0,1,0,.07L30.75,87.66c-.06-2,0-3.86,0-5.7s0-3.79,0-5.68V48.21l.1-.09.06,0,.15,0H41l.36.05.07,0,.15,0,.36,0H80.67l.07,0s0,0,.06,0c.14.67.14,38.82,0,39.47a3.25,3.25,0,0,1-.4-.31c-.54-.57-1-1.16-1.6-1.71-1.31-1.3-2.65-2.56-4-3.86-1.53-1.5-3-3-4.54-4.54a10.29,10.29,0,0,1-.86-1,.92.92,0,0,1-.17-.46,3.9,3.9,0,0,1,0-.59V59.72Z"/><path d="M80.91,145H30.76c0-.23,0-.42,0-.61q0-12,0-24.05a1.4,1.4,0,0,1,.46-1.1c3.47-3.44,6.92-6.91,10.38-10.37.24-.24.49-.47.85-.81v25.23c.34,0,.62.06.91.06H69.2c.06-.79,0-1.55,0-2.3s0-1.52,0-2.29,0-1.52,0-2.28V108l1.68,1.66c1.52,1.5,3,3,4.56,4.5,1.34,1.33,2.65,2.69,4,4,.39.4.79.8,1.19,1.19a.77.77,0,0,1,.27.65c0,.17,0,.35,0,.52V145Z"/><rect x="61.33" y="55.97" width="11.03" height="11.03" transform="translate(-16.23 24.78) rotate(-18.77)"/><path d="M70,55l3.3,9.7L63.64,68l-3.3-9.7L70,55m.49-1-.74.25-9.7,3.3-.74.25.25.74,3.3,9.7.25.74.74-.25,9.7-3.3.74-.25-.25-.74-3.3-9.7L70.53,54Z"/><rect x="85.17" y="31.49" width="8.05" height="8.05" transform="matrix(0.95, -0.32, 0.32, 0.95, -6.68, 30.59)"/><rect class="cls-5" x="85.17" y="31.49" width="8.05" height="8.05" transform="matrix(0.95, -0.32, 0.32, 0.95, -6.68, 30.59)"/><rect x="79.4" y="58.63" width="8.05" height="8.05" transform="translate(-15.72 30.17) rotate(-18.77)"/><rect class="cls-5" x="79.4" y="58.63" width="8.05" height="8.05" transform="translate(-15.72 30.17) rotate(-18.77)"/><rect x="92.63" y="50.07" width="7.33" height="7.33" transform="translate(-12.17 33.84) rotate(-18.77)"/><rect class="cls-5" x="92.63" y="50.07" width="7.33" height="7.33" transform="translate(-12.17 33.84) rotate(-18.77)"/><rect x="74.68" y="31.83" width="7.33" height="7.33" transform="translate(-7.26 27.1) rotate(-18.77)"/><rect class="cls-5" x="74.68" y="31.83" width="7.33" height="7.33" transform="translate(-7.26 27.1) rotate(-18.77)"/><rect x="60.15" y="41.96" width="8.12" height="8.12" transform="translate(-11.39 23.11) rotate(-18.77)"/><path d="M66.5,41.37l2.36,6.94-7,2.36-2.36-6.94,7-2.36m.49-1-.74.26L59.3,43l-.74.25.25.74,2.36,6.94.26.74.74-.25,6.94-2.36.74-.25-.25-.74-2.36-7L67,40.37Z"/><rect x="88.01" y="42.41" width="5.61" height="5.61" transform="translate(-9.72 31.62) rotate(-18.77)"/><rect class="cls-5" x="88.01" y="42.41" width="5.61" height="5.61" transform="translate(-9.72 31.62) rotate(-18.77)"/><rect x="70.21" y="17.67" width="6.39" height="6.39" transform="translate(-2.81 24.73) rotate(-18.77)"/><path d="M75.16,17.31,77,22.62l-5.32,1.81-1.8-5.31,5.31-1.81m.49-1-.74.25-5.31,1.8-.74.26.25.74,1.8,5.31.26.74.74-.25,5.31-1.81.74-.25-.25-.74L75.9,17.06l-.25-.74Z"/><rect x="103.41" y="54.01" width="5.61" height="5.61" transform="translate(-12.63 37.2) rotate(-18.77)"/><rect class="cls-5" x="103.41" y="54.01" width="5.61" height="5.61" transform="translate(-12.63 37.2) rotate(-18.77)"/><rect x="92.7" y="60" width="5.61" height="5.61" transform="translate(-15.13 34.07) rotate(-18.77)"/><rect class="cls-5" x="92.7" y="60" width="5.61" height="5.61" transform="translate(-15.13 34.07) rotate(-18.77)"/><rect x="74.99" y="43.55" width="10.51" height="10.51" transform="translate(-11.44 28.42) rotate(-18.77)"/><rect class="cls-5" x="74.99" y="43.55" width="10.51" height="10.51" transform="translate(-11.44 28.42) rotate(-18.77)"/></g><path class="cls-4" d="M54.81,85.91,19,121.72c-2.79-2.72-5.47-5.49-8.26-8.26l44-44c.23.2.42.35.58.52q9.76,9.75,19.52,19.5c.63.63,1.29,1.21,1.92,1.83.85.85,1.67,1.72,2.52,2.57l19,19,.49.51a110.31,110.31,0,0,1-8.23,8.29Z"/><path class="cls-3" d="M68.24,58.72H41.51l-.07.08a.16.16,0,0,0,0,.07.59.59,0,0,0,0,.14.76.76,0,0,0,0,.15q0,7.92,0,15.86a.19.19,0,0,1,0,.07L29.75,86.66c-.06-2,0-3.86,0-5.7s0-3.79,0-5.68V47.21l.1-.09.06,0,.15,0H40l.36.05.07,0,.15,0,.36,0H79.67l.07,0s0,0,.06,0c.14.67.14,38.82,0,39.47a3.25,3.25,0,0,1-.4-.31c-.54-.57-1-1.16-1.6-1.71-1.31-1.3-2.65-2.56-4-3.86-1.53-1.5-3-3-4.54-4.54a10.29,10.29,0,0,1-.86-1,.92.92,0,0,1-.17-.46,3.9,3.9,0,0,1,0-.59V58.72Z"/><path class="cls-3" d="M79.91,144H29.76c0-.23,0-.42,0-.61q0-12,0-24.05a1.4,1.4,0,0,1,.46-1.1c3.47-3.44,6.92-6.91,10.38-10.37.24-.24.49-.47.85-.81v25.23c.34,0,.62.06.91.06H68.2c.06-.79,0-1.55,0-2.3s0-1.52,0-2.29,0-1.52,0-2.28V107l1.68,1.66c1.52,1.5,3,3,4.56,4.5,1.34,1.33,2.65,2.69,4,4,.39.4.79.8,1.19,1.19a.77.77,0,0,1,.27.65c0,.17,0,.35,0,.52V144Z"/><rect class="cls-3" x="60.33" y="54.97" width="11.03" height="11.03" transform="translate(-15.96 24.4) rotate(-18.77)"/><path class="cls-6" d="M69,54l3.3,9.7L62.64,67l-3.3-9.7L69,54m.49-1-.74.25-9.7,3.3-.74.25.25.74,3.3,9.7.25.74.74-.25,9.7-3.3.74-.25-.25-.74-3.3-9.7L69.53,53Z"/><rect class="cls-3" x="84.17" y="30.49" width="8.05" height="8.05" transform="matrix(0.95, -0.32, 0.32, 0.95, -6.42, 30.21)"/><rect class="cls-7" x="84.17" y="30.49" width="8.05" height="8.05" transform="matrix(0.95, -0.32, 0.32, 0.95, -6.42, 30.21)"/><rect class="cls-3" x="78.4" y="57.63" width="8.05" height="8.05" transform="translate(-15.45 29.8) rotate(-18.77)"/><rect class="cls-7" x="78.4" y="57.63" width="8.05" height="8.05" transform="translate(-15.45 29.8) rotate(-18.77)"/><rect class="cls-3" x="91.63" y="49.07" width="7.33" height="7.33" transform="translate(-11.9 33.47) rotate(-18.77)"/><rect class="cls-7" x="91.63" y="49.07" width="7.33" height="7.33" transform="translate(-11.9 33.47) rotate(-18.77)"/><rect class="cls-3" x="73.68" y="30.83" width="7.33" height="7.33" transform="translate(-6.99 26.72) rotate(-18.77)"/><rect class="cls-7" x="73.68" y="30.83" width="7.33" height="7.33" transform="translate(-6.99 26.72) rotate(-18.77)"/><rect class="cls-3" x="59.15" y="40.96" width="8.12" height="8.12" transform="translate(-11.13 22.74) rotate(-18.77)"/><path class="cls-6" d="M65.5,40.37l2.36,6.94-7,2.36-2.36-6.94,7-2.36m.49-1-.74.26L58.3,42l-.74.25.25.74,2.36,6.94.26.74.74-.25,6.94-2.36.74-.25-.25-.74-2.36-7L66,39.37Z"/><rect class="cls-3" x="87.01" y="41.41" width="5.61" height="5.61" transform="translate(-9.45 31.25) rotate(-18.77)"/><rect class="cls-7" x="87.01" y="41.41" width="5.61" height="5.61" transform="translate(-9.45 31.25) rotate(-18.77)"/><rect class="cls-3" x="69.21" y="16.67" width="6.39" height="6.39" transform="translate(-2.54 24.36) rotate(-18.77)"/><path class="cls-6" d="M74.16,16.31,76,21.62l-5.32,1.81-1.8-5.31,5.31-1.81m.49-1-.74.25-5.31,1.8-.74.26.25.74,1.8,5.31.26.74.74-.25,5.31-1.81.74-.25-.25-.74L74.9,16.06l-.25-.74Z"/><rect class="cls-3" x="102.41" y="53.01" width="5.61" height="5.61" transform="translate(-12.36 36.82) rotate(-18.77)"/><rect class="cls-7" x="102.41" y="53.01" width="5.61" height="5.61" transform="translate(-12.36 36.82) rotate(-18.77)"/><rect class="cls-3" x="91.7" y="59" width="5.61" height="5.61" transform="translate(-14.86 33.69) rotate(-18.77)"/><rect class="cls-7" x="91.7" y="59" width="5.61" height="5.61" transform="translate(-14.86 33.69) rotate(-18.77)"/><rect class="cls-3" x="73.99" y="42.55" width="10.51" height="10.51" transform="translate(-11.17 28.04) rotate(-18.77)"/><rect class="cls-7" x="73.99" y="42.55" width="10.51" height="10.51" transform="translate(-11.17 28.04) rotate(-18.77)"/><path class="cls-3" d="M90.11,72.93l.19,0a5.23,5.23,0,0,1,2,.55A5.47,5.47,0,0,1,94.5,75.6a5.39,5.39,0,0,1,.68,1.83,5.49,5.49,0,0,1,.06,1.46,5.45,5.45,0,0,1-2.71,4.19,5.49,5.49,0,0,1-1.68.63,5.61,5.61,0,0,1-1.29.09A5.31,5.31,0,0,1,87,83a5.37,5.37,0,0,1-1.94-2,5.09,5.09,0,0,1-.62-1.68,5.49,5.49,0,0,1-.07-1.4A5.13,5.13,0,0,1,85,75.9a5.45,5.45,0,0,1,3.62-2.83,5,5,0,0,1,.94-.13h.56Zm-4.88,5.44a4.6,4.6,0,1,0,4.67-4.6A4.6,4.6,0,0,0,85.23,78.37Z"/><path class="cls-3" d="M88.16,75.86H90c.21,0,.42,0,.62,0a2.46,2.46,0,0,1,.47.1,1.62,1.62,0,0,1,.53.25,1.28,1.28,0,0,1,.51.81,2.1,2.1,0,0,1,0,.61,1.33,1.33,0,0,1-.43.93,1.74,1.74,0,0,1-.68.34l-.21,0,1.22,1.91H91.3a.07.07,0,0,1-.08,0l-1.09-1.71A.16.16,0,0,0,90,79H89v1.84h-.83ZM89,78.33h1.14a1.53,1.53,0,0,0,.52-.08,1.41,1.41,0,0,0,.31-.1.86.86,0,0,0,.35-1.07.8.8,0,0,0-.59-.48,1.68,1.68,0,0,0-.5-.07c-.39,0-.78,0-1.17,0H89Z"/></g></g></svg>